<svg xmlns="http://www.w3.org/2000/svg" fill="none" viewBox="0 0 600 600"><g clip-path="url(#devicon-vite-3-a)"><path fill="url(#devicon-vite-4-b)" d="M597.6 88.8 316.1 592.2a15.3 15.3 0 0 1-26.6 0L2.5 89a15.3 15.3 0 0 1 16-22.7l281.7 50.4q2.7.5 5.4 0l276-50.3a15.3 15.3 0 0 1 16 22.5"/><path fill="url(#devicon-vite-5-c)" d="M434.4.1 226.1 41c-3.4.6-6 3.5-6.1 7l-13 216.4a7.8 7.8 0 0 0 9.4 8l58-13.4a7.6 7.6 0 0 1 9.2 9l-17.2 84.3a7.7 7.7 0 0 0 9.7 8.9l35.8-10.9a7.7 7.7 0 0 1 9.7 8.9l-27.3 132.5c-1.8 8.3 9.3 12.8 13.9 5.7l3-4.7L481 153.9a7.6 7.6 0 0 0-8.3-11L413 154.6a7.7 7.7 0 0 1-8.8-9.7l39-135a7.7 7.7 0 0 0-8.9-9.7"/></g><defs><linearGradient id="devicon-vite-4-b" x1="-495.9" x2="29863.5" y1="4152.3" y2="45382.6" gradientUnits="userSpaceOnUse"><stop stop-color="#41D1FF"/><stop offset="1" stop-color="#BD34FE"/></linearGradient><linearGradient id="devicon-vite-5-c" x1="12126" x2="18371.4" y1="1123" y2="43965.4" gradientUnits="userSpaceOnUse"><stop stop-color="#FFEA83"/><stop offset=".1" stop-color="#FFDD35"/><stop offset="1" stop-color="#FFA800"/></linearGradient><clipPath id="devicon-vite-3-a"><path fill="#fff" d="M0 0h600v600H0z"/></clipPath></defs></svg>