<svg xmlns="http://www.w3.org/2000/svg" fill="none" viewBox="0 0 24 24" id="Xampp--Streamline-Svg-Logos" height="24" width="24">
  <desc>
    Xampp Streamline Icon: https://streamlinehq.com
  </desc>
  <path fill="#fb7a24" fill-rule="evenodd" d="M11.9935 0.250165c3.026475 0 6.0531 0 9.07955 -0.000165 0.379775 0 0.7561 0.03297 1.1205 0.1440825 0.7901 0.2408525 1.208525 0.807455 1.372475 1.5883675 0.06505 0.3095975 0.08355 0.6253 0.084225 0.940825 0.004775 2.1197 0.0084 4.239375 0.008575 6.359075 0.000175 3.86055 0.00065 7.7211 -0.007275 11.58165 -0.00115 0.5404 -0.029875 1.086725 -0.2967 1.578975 -0.2959 0.546 -0.7011 0.978075 -1.316175 1.16815 -0.111125 0.0343 -0.2272 0.073375 -0.341125 0.073375 -0.26255 0.00015 -0.517975 0.065275 -0.7797 0.065275 -5.9266 -0.0005 -11.853225 0.00295 -17.779825 -0.006425 -0.482 -0.000825 -0.9719025 -0.03595 -1.429775 -0.232125 -0.0911475 -0.039075 -0.1831175 -0.071875 -0.2632 -0.132875 -0.583035 -0.444275 -0.978825 -0.99835 -1.0636975 -1.7481 -0.030545 -0.270375 -0.0402875 -0.53925 -0.0402875 -0.8096 0.00099 -6.007275 0.001485 -12.014575 0.0046225 -18.02185 0.000165 -0.348495 0.0037975 -0.70293 0.11096 -1.03643 0.28549 -0.8888925 0.910135 -1.3740575 1.8361225 -1.47264 0.215155 -0.022915 0.43228 -0.0377525 0.64843 -0.0379175 3.017375 -0.002472 6.034925 -0.0016475 9.0523 -0.0016475Z" clip-rule="evenodd" stroke-width="0.25"></path>
  <path fill="#ffffff" fill-rule="evenodd" d="M12.07045 15.1984c-0.066275 0.4057 -0.112775 0.77235 -0.2585 1.1103 -0.682325 1.583425 -1.84505 2.5483 -3.588225 2.740375 -2.0605 0.227 -3.963575 -1.0447 -4.535775 -3.0198 -0.2074 -0.7158 -0.186625 -1.44545 -0.11145 -2.173925 0.080275 -0.77845 0.3096 -1.516675 0.66765 -2.213 0.051275 -0.099575 0.0503 -0.17475 -0.01385 -0.2712 -0.549775 -0.8269 -0.7631 -1.74035 -0.685625 -2.72635 0.0414 -0.52705 0.169325 -1.031175 0.40835 -1.5033 0.7003 -1.383125 2.2379 -2.5569 4.29725 -2.362025 1.81075 0.171275 3.487975 1.733275 3.749775 3.48995 0.013175 0.0882 0.037925 0.17475 0.066925 0.304825 0.04335 -0.235575 0.074675 -0.42995 0.115225 -0.6225 0.3373 -1.59595 1.89945 -3.265925 4.113775 -3.286525 2.244325 -0.020775 3.906375 1.739375 4.219925 3.374225 0.13255 0.6909 0.109475 1.38115 0.000175 2.071075 -0.1093 0.68925 -0.31175 1.3518 -0.60765 1.98335 -0.065275 0.1393 -0.058525 0.239525 0.02505 0.36895 0.48335 0.7491 0.696675 1.571375 0.669325 2.4644 -0.057225 1.86335 -1.37505 3.5343 -3.188125 3.971325 -2.531325 0.609975 -4.471675 -0.9039 -5.12465 -2.735425 -0.1065 -0.29805 -0.15695 -0.6093 -0.219575 -0.964725Zm4.59875 -3.273675c0.02705 -0.105325 0.10865 -0.168475 0.167325 -0.24645 0.6347 -0.8434 0.968525 -1.785525 0.894 -2.846375 -0.054225 -0.7743 -0.69105 -1.31965 -1.461925 -1.2908 -0.77135 0.02885 -1.352625 0.6238 -1.3635 1.39565 -0.000825 0.06315 0.002975 0.12645 -0.000975 0.18925 -0.0531 0.822625 -0.506925 1.273175 -1.1947 1.32345 -0.125625 0.009225 -0.251575 0.02045 -0.37735 0.020775 -0.8927 0.001975 -1.7852 0.00165 -2.6779 0.000825 -0.389875 -0.000325 -0.77645 0.04205 -1.1477 0.1566 -1.733125 0.5348 -2.743675 1.719925 -3.078325 3.48635 -0.066275 0.349475 -0.12595 0.712175 -0.011375 1.071225 0.16435 0.514825 0.470825 0.897775 1.01335 1.025875 0.562325 0.1327 1.0521 -0.014175 1.44115 -0.455825 0.251575 -0.285525 0.330875 -0.6248 0.349675 -0.9972 0.048625 -0.9578 0.570225 -1.436525 1.44 -1.429275 1.334325 0.01105 2.6688 0.0023 4.0033 0.0033 0.2369 0.00015 0.23905 0.0033 0.2402 0.23755 0.0023 0.43275 -0.01105 0.865975 0.0056 1.298225 0.0272 0.705575 0.64805 1.292125 1.3678 1.312725 0.742175 0.021275 1.403725 -0.5277 1.452025 -1.2443 0.0417 -0.6202 0.039075 -1.244325 -0.00165 -1.865 -0.031475 -0.48055 -0.29145 -0.82295 -0.73195 -1.021775 -0.105675 -0.047475 -0.216775 -0.083075 -0.327075 -0.1248Zm-8.364525 -1.455825c0.287025 0 0.521275 -0.002625 0.755375 0.00115 0.11605 0.001825 0.159075 -0.048125 0.158075 -0.161875 -0.003775 -0.450225 0.019475 -0.901925 -0.009225 -1.350475 -0.037925 -0.591825 -0.352625 -1.019625 -0.90355 -1.235425 -0.564975 -0.221225 -1.08195 -0.09495 -1.51915 0.3223 -0.43915 0.419225 -0.497675 0.9319 -0.34405 1.493075 0.141125 0.51565 0.474625 0.8086 0.999025 0.897125 0.30465 0.051275 0.61095 0.026725 0.8635 0.034125Z" clip-rule="evenodd" stroke-width="0.25"></path>
</svg>